<?xml version="1.0" encoding="iso-8859-1"?>
<!-- Generator: Adobe Illustrator 19.0.0, SVG Export Plug-In . SVG Version: 6.00 Build 0)  -->
<svg version="1.1" id="Capa_1" xmlns="http://www.w3.org/2000/svg" xmlns:xlink="http://www.w3.org/1999/xlink" x="0px" y="0px"
	 viewBox="0 0 384 384" style="enable-background:new 0 0 384 384;" xml:space="preserve">
<g>
	<g>
		<path fill='white' d="M112.928,285.6c-3.024-2.056-5.984-4.392-8.816-6.936c-6.568-5.92-16.696-5.376-22.592,1.184
			c-5.912,6.568-5.384,16.68,1.184,22.592c3.888,3.504,8,6.736,12.216,9.608c2.76,1.88,5.896,2.784,8.992,2.784
			c5.12,0,10.152-2.448,13.24-7C122.12,300.528,120.232,290.576,112.928,285.6z"/>
	</g>
</g>
<g>
	<g>
		<path fill='white' d="M360,171.536C360,76.952,284.368,0,191.4,0C106.256,0,34.336,64.728,24.112,150.568c-1.04,8.776,5.224,16.736,14,17.776
			c8.712,1.072,16.736-5.216,17.784-14C64.192,84.6,122.456,32,191.4,32C266.72,32,328,94.592,328,171.536
			c0,64.96-43.744,119.536-102.68,135l19.336-27.592c5.072-7.24,3.32-17.216-3.92-22.288c-7.224-5.08-17.216-3.312-22.28,3.92
			l-40.16,57.304c-0.024,0.04-0.04,0.08-0.064,0.12c-0.384,0.552-0.68,1.168-0.992,1.768c-0.168,0.328-0.392,0.648-0.536,0.984
			c-0.192,0.456-0.304,0.944-0.456,1.416c-0.168,0.52-0.376,1.04-0.488,1.568c-0.072,0.36-0.08,0.736-0.136,1.096
			c-0.096,0.68-0.2,1.36-0.208,2.04c0,0.064-0.016,0.128-0.016,0.192c0,0.376,0.088,0.72,0.112,1.088
			c0.04,0.616,0.072,1.224,0.184,1.824c0.096,0.504,0.248,0.984,0.392,1.472c0.144,0.504,0.272,1,0.464,1.488
			c0.192,0.488,0.44,0.936,0.68,1.4c0.232,0.456,0.456,0.912,0.728,1.344c0.288,0.448,0.616,0.848,0.944,1.264
			c0.312,0.392,0.608,0.792,0.952,1.16c0.416,0.432,0.872,0.808,1.336,1.192c0.272,0.232,0.504,0.496,0.792,0.712l56.216,40.928
			c2.84,2.064,6.136,3.064,9.4,3.064c4.944,0,9.824-2.28,12.952-6.584c5.192-7.144,3.624-17.152-3.52-22.352L233,337.568
			C305.88,318.648,360,251.488,360,171.536z"/>
	</g>
</g>
<g>
	<g>
		<path fill='white' d="M68.8,233.808c-0.064-0.28-0.184-0.544-0.256-0.824c-0.216-0.8-0.464-1.592-0.8-2.336c-0.04-0.088-0.056-0.192-0.096-0.28
			c-1.976-4.176-3.392-7.6-4.472-10.768c-2.84-8.36-11.928-12.872-20.296-10c-8.368,2.84-12.84,11.928-10,20.296
			c1.384,4.072,3.104,8.28,5.368,13.16c0.024,0.056,0.072,0.104,0.096,0.168c0.52,1.288,1.224,2.472,2.048,3.568
			c0.2,0.264,0.416,0.504,0.632,0.76c0.816,0.96,1.728,1.84,2.752,2.584c0.12,0.088,0.224,0.2,0.352,0.288
			c1.136,0.776,2.392,1.36,3.712,1.832c0.336,0.12,0.664,0.216,1.008,0.312c1.36,0.384,2.768,0.648,4.256,0.656
			c0.024,0,0.048,0.008,0.072,0.008c7.728,0,14.184-5.52,15.672-12.816c0.216-1.04,0.328-2.12,0.328-3.224
			C69.176,236.032,69.04,234.904,68.8,233.808z"/>
	</g>
</g>
</svg>
